<svg xmlns="http://www.w3.org/2000/svg" xmlns:xlink="http://www.w3.org/1999/xlink" width="1000" zoomAndPan="magnify" viewBox="0 0 750 299.999988" height="400" preserveAspectRatio="xMidYMid meet" version="1.0"><defs><g/></defs><rect x="-75" width="900" fill="#ffffff" y="-29.999999" height="359.999986" fill-opacity="1"/><rect x="-75" width="900" fill="#7e009d" y="-29.999999" height="359.999986" fill-opacity="1"/><g fill="#ffffff" fill-opacity="1"><g transform="translate(241.867186, 169.26587)"><g><path d="M 4.765625 0 L 4.765625 -37.859375 L 12.796875 -37.859375 L 12.796875 0 Z M 4.765625 0 "/></g></g></g><g fill="#ffffff" fill-opacity="1"><g transform="translate(259.419729, 169.26587)"><g><path d="M 20.796875 0 L 11.671875 -29.703125 L 11.4375 -29.703125 C 11.769531 -23.660156 11.9375 -19.628906 11.9375 -17.609375 L 11.9375 0 L 4.765625 0 L 4.765625 -37.859375 L 15.6875 -37.859375 L 24.65625 -8.90625 L 24.8125 -8.90625 L 34.3125 -37.859375 L 45.234375 -37.859375 L 45.234375 0 L 37.75 0 L 37.75 -17.921875 C 37.75 -18.765625 37.757812 -19.738281 37.78125 -20.84375 C 37.8125 -21.945312 37.929688 -24.882812 38.140625 -29.65625 L 37.90625 -29.65625 L 28.140625 0 Z M 20.796875 0 "/></g></g></g><g fill="#ffffff" fill-opacity="1"><g transform="translate(309.410821, 169.26587)"><g><path d="M 27.9375 0 L 25.1875 -9.015625 L 11.390625 -9.015625 L 8.65625 0 L 0 0 L 13.359375 -38.015625 L 23.171875 -38.015625 L 36.59375 0 Z M 23.28125 -15.75 C 20.738281 -23.90625 19.304688 -28.519531 18.984375 -29.59375 C 18.671875 -30.664062 18.445312 -31.515625 18.3125 -32.140625 C 17.738281 -29.921875 16.101562 -24.457031 13.40625 -15.75 Z M 23.28125 -15.75 "/></g></g></g><g fill="#ffffff" fill-opacity="1"><g transform="translate(345.991563, 169.26587)"><g><path d="M 19.140625 -21.265625 L 34.15625 -21.265625 L 34.15625 -1.625 C 31.71875 -0.832031 29.425781 -0.28125 27.28125 0.03125 C 25.132812 0.351562 22.9375 0.515625 20.6875 0.515625 C 14.976562 0.515625 10.613281 -1.160156 7.59375 -4.515625 C 4.582031 -7.878906 3.078125 -12.703125 3.078125 -18.984375 C 3.078125 -25.085938 4.820312 -29.847656 8.3125 -33.265625 C 11.8125 -36.691406 16.660156 -38.40625 22.859375 -38.40625 C 26.742188 -38.40625 30.492188 -37.628906 34.109375 -36.078125 L 31.4375 -29.65625 C 28.675781 -31.03125 25.800781 -31.71875 22.8125 -31.71875 C 19.34375 -31.71875 16.5625 -30.550781 14.46875 -28.21875 C 12.382812 -25.894531 11.34375 -22.765625 11.34375 -18.828125 C 11.34375 -14.710938 12.179688 -11.570312 13.859375 -9.40625 C 15.546875 -7.238281 17.992188 -6.15625 21.203125 -6.15625 C 22.878906 -6.15625 24.582031 -6.332031 26.3125 -6.6875 L 26.3125 -14.578125 L 19.140625 -14.578125 Z M 19.140625 -21.265625 "/></g></g></g><g fill="#ffffff" fill-opacity="1"><g transform="translate(384.384514, 169.26587)"><g><path d="M 26.5625 0 L 4.765625 0 L 4.765625 -37.859375 L 26.5625 -37.859375 L 26.5625 -31.28125 L 12.796875 -31.28125 L 12.796875 -22.96875 L 25.609375 -22.96875 L 25.609375 -16.390625 L 12.796875 -16.390625 L 12.796875 -6.625 L 26.5625 -6.625 Z M 26.5625 0 "/></g></g></g><g fill="#ffffff" fill-opacity="1"><g transform="translate(414.07886, 169.26587)"><g><path d="M 20.796875 0 L 11.671875 -29.703125 L 11.4375 -29.703125 C 11.769531 -23.660156 11.9375 -19.628906 11.9375 -17.609375 L 11.9375 0 L 4.765625 0 L 4.765625 -37.859375 L 15.6875 -37.859375 L 24.65625 -8.90625 L 24.8125 -8.90625 L 34.3125 -37.859375 L 45.234375 -37.859375 L 45.234375 0 L 37.75 0 L 37.75 -17.921875 C 37.75 -18.765625 37.757812 -19.738281 37.78125 -20.84375 C 37.8125 -21.945312 37.929688 -24.882812 38.140625 -29.65625 L 37.90625 -29.65625 L 28.140625 0 Z M 20.796875 0 "/></g></g></g><g fill="#ffffff" fill-opacity="1"><g transform="translate(464.069951, 169.26587)"><g/></g></g><g fill="#ffffff" fill-opacity="1"><g transform="translate(477.842743, 169.26587)"><g><path d="M 28.59375 0 L 2.125 0 L 2.125 -5.5625 L 11.625 -15.171875 C 14.4375 -18.054688 16.273438 -20.054688 17.140625 -21.171875 C 18.003906 -22.285156 18.625 -23.316406 19 -24.265625 C 19.382812 -25.210938 19.578125 -26.195312 19.578125 -27.21875 C 19.578125 -28.738281 19.15625 -29.867188 18.3125 -30.609375 C 17.476562 -31.347656 16.363281 -31.71875 14.96875 -31.71875 C 13.5 -31.71875 12.070312 -31.378906 10.6875 -30.703125 C 9.3125 -30.035156 7.875 -29.082031 6.375 -27.84375 L 2.015625 -32.984375 C 3.878906 -34.578125 5.425781 -35.703125 6.65625 -36.359375 C 7.882812 -37.015625 9.222656 -37.519531 10.671875 -37.875 C 12.117188 -38.226562 13.738281 -38.40625 15.53125 -38.40625 C 17.894531 -38.40625 19.984375 -37.972656 21.796875 -37.109375 C 23.609375 -36.242188 25.015625 -35.035156 26.015625 -33.484375 C 27.023438 -31.929688 27.53125 -30.148438 27.53125 -28.140625 C 27.53125 -26.398438 27.222656 -24.765625 26.609375 -23.234375 C 25.992188 -21.710938 25.039062 -20.144531 23.75 -18.53125 C 22.46875 -16.925781 20.203125 -14.640625 16.953125 -11.671875 L 12.09375 -7.09375 L 12.09375 -6.734375 L 28.59375 -6.734375 Z M 28.59375 0 "/></g></g></g></svg>