<svg xmlns="http://www.w3.org/2000/svg" xmlns:xlink="http://www.w3.org/1999/xlink" width="200" zoomAndPan="magnify" viewBox="0 0 150 149.999998" height="200" preserveAspectRatio="xMidYMid meet" version="1.0"><defs><filter x="0%" y="0%" width="100%" height="100%" id="513c9e0a04"><feColorMatrix values="0 0 0 0 1 0 0 0 0 1 0 0 0 0 1 0 0 0 1 0" color-interpolation-filters="sRGB"/></filter><g/><mask id="7213e2fcb2"><g filter="url(#513c9e0a04)"><rect x="-15" width="180" fill="#000000" y="-15" height="179.999997" fill-opacity="0.32"/></g></mask><clipPath id="50de87acec"><path d="M 138.480469 0.855469 L 144.363281 0.855469 L 144.363281 6.289062 L 138.480469 6.289062 Z M 138.480469 0.855469 " clip-rule="nonzero"/></clipPath><clipPath id="a1e9c6ea49"><path d="M 144.113281 6.226562 L 150 6.226562 L 150 11.664062 L 144.113281 11.664062 Z M 144.113281 6.226562 " clip-rule="nonzero"/></clipPath><clipPath id="e419800523"><path d="M 138.609375 11.664062 L 144.496094 11.664062 L 144.496094 17.097656 L 138.609375 17.097656 Z M 138.609375 11.664062 " clip-rule="nonzero"/></clipPath><clipPath id="e8587dd94a"><path d="M 132.191406 6.472656 L 138.078125 6.472656 L 138.078125 11.910156 L 132.191406 11.910156 Z M 132.191406 6.472656 " clip-rule="nonzero"/></clipPath><clipPath id="88de8d37bc"><path d="M 125.945312 0.917969 L 131.832031 0.917969 L 131.832031 6.355469 L 125.945312 6.355469 Z M 125.945312 0.917969 " clip-rule="nonzero"/></clipPath><clipPath id="744d808ab2"><path d="M 60.707031 33.355469 L 66.59375 33.355469 L 66.59375 38.792969 L 60.707031 38.792969 Z M 60.707031 33.355469 " clip-rule="nonzero"/></clipPath><clipPath id="c5e41bb9e6"><path d="M 126.816406 11.992188 L 132.703125 11.992188 L 132.703125 17.429688 L 126.816406 17.429688 Z M 126.816406 11.992188 " clip-rule="nonzero"/></clipPath><clipPath id="df918f0e89"><path d="M 132.789062 17.183594 L 138.675781 17.183594 L 138.675781 22.621094 L 132.789062 22.621094 Z M 132.789062 17.183594 " clip-rule="nonzero"/></clipPath><clipPath id="26668f6b7a"><path d="M 138.757812 17.183594 L 144.644531 17.183594 L 144.644531 22.621094 L 138.757812 22.621094 Z M 138.757812 17.183594 " clip-rule="nonzero"/></clipPath><clipPath id="5563371371"><path d="M 141.289062 22.707031 L 147.171875 22.707031 L 147.171875 28.144531 L 141.289062 28.144531 Z M 141.289062 22.707031 " clip-rule="nonzero"/></clipPath><clipPath id="c580d7f832"><path d="M 126.902344 22.707031 L 132.789062 22.707031 L 132.789062 28.144531 L 126.902344 28.144531 Z M 126.902344 22.707031 " clip-rule="nonzero"/></clipPath><clipPath id="d997125b98"><path d="M 119.71875 5.886719 L 125.605469 5.886719 L 125.605469 11.324219 L 119.71875 11.324219 Z M 119.71875 5.886719 " clip-rule="nonzero"/></clipPath><clipPath id="4558ac831c"><path d="M 132.875 28.144531 L 138.757812 28.144531 L 138.757812 33.582031 L 132.875 33.582031 Z M 132.875 28.144531 " clip-rule="nonzero"/></clipPath><clipPath id="068cb16329"><path d="M 138.757812 33.757812 L 144.644531 33.757812 L 144.644531 39.195312 L 138.757812 39.195312 Z M 138.757812 33.757812 " clip-rule="nonzero"/></clipPath><clipPath id="0f66a505f4"><path d="M 116.230469 26.699219 L 122.992188 26.699219 L 122.992188 32.949219 L 116.230469 32.949219 Z M 116.230469 26.699219 " clip-rule="nonzero"/></clipPath><clipPath id="97fc2771f8"><path d="M 75.652344 26.699219 L 82.417969 26.699219 L 82.417969 32.949219 L 75.652344 32.949219 Z M 75.652344 26.699219 " clip-rule="nonzero"/></clipPath><clipPath id="28d5797fc0"><path d="M 75.652344 32.949219 L 82.417969 32.949219 L 82.417969 39.195312 L 75.652344 39.195312 Z M 75.652344 32.949219 " clip-rule="nonzero"/></clipPath><clipPath id="d3e8cb7eda"><path d="M 125.238281 32.949219 L 132 32.949219 L 132 39.195312 L 125.238281 39.195312 Z M 125.238281 32.949219 " clip-rule="nonzero"/></clipPath><clipPath id="c47a71b346"><path d="M 102.703125 32.949219 L 109.46875 32.949219 L 109.46875 39.195312 L 102.703125 39.195312 Z M 102.703125 32.949219 " clip-rule="nonzero"/></clipPath><clipPath id="f203307d7e"><path d="M 89.179688 27.964844 L 95.941406 27.964844 L 95.941406 34.210938 L 89.179688 34.210938 Z M 89.179688 27.964844 " clip-rule="nonzero"/></clipPath><clipPath id="aabd0806c4"><path d="M 95.941406 32.949219 L 102.703125 32.949219 L 102.703125 39.195312 L 95.941406 39.195312 Z M 95.941406 32.949219 " clip-rule="nonzero"/></clipPath><clipPath id="4b104fa349"><path d="M 109.46875 32.949219 L 116.230469 32.949219 L 116.230469 39.195312 L 109.46875 39.195312 Z M 109.46875 32.949219 " clip-rule="nonzero"/></clipPath><clipPath id="b0aef88fd7"><path d="M 2.46875 32.605469 L 9.167969 32.605469 L 9.167969 38.792969 L 2.46875 38.792969 Z M 2.46875 32.605469 " clip-rule="nonzero"/></clipPath><clipPath id="3bf41da908"><path d="M 14.75 21.304688 L 21.449219 21.304688 L 21.449219 27.492188 L 14.75 27.492188 Z M 14.75 21.304688 " clip-rule="nonzero"/></clipPath><clipPath id="df50689853"><path d="M 8.21875 27.589844 L 14.917969 27.589844 L 14.917969 33.777344 L 8.21875 33.777344 Z M 8.21875 27.589844 " clip-rule="nonzero"/></clipPath><clipPath id="12bb8a7111"><path d="M 0 21.632812 L 6.699219 21.632812 L 6.699219 27.820312 L 0 27.820312 Z M 0 21.632812 " clip-rule="nonzero"/></clipPath><clipPath id="670355c6d3"><path d="M 0 15.445312 L 6.699219 15.445312 L 6.699219 21.632812 L 0 21.632812 Z M 0 15.445312 " clip-rule="nonzero"/></clipPath><clipPath id="930b09fdc6"><path d="M 6.621094 15.445312 L 13.320312 15.445312 L 13.320312 21.632812 L 6.621094 21.632812 Z M 6.621094 15.445312 " clip-rule="nonzero"/></clipPath><clipPath id="fec41ed7d9"><path d="M 20.832031 33.808594 L 27.53125 33.808594 L 27.53125 40 L 20.832031 40 Z M 20.832031 33.808594 " clip-rule="nonzero"/></clipPath><clipPath id="2c83bdb23e"><path d="M 27.074219 27.21875 L 33.773438 27.21875 L 33.773438 33.410156 L 27.074219 33.410156 Z M 27.074219 27.21875 " clip-rule="nonzero"/></clipPath><clipPath id="1241635d0d"><path d="M 27.261719 33.410156 L 33.960938 33.410156 L 33.960938 39.597656 L 27.261719 39.597656 Z M 27.261719 33.410156 " clip-rule="nonzero"/></clipPath><clipPath id="1bd930d1d2"><path d="M 54.007812 27.21875 L 60.707031 27.21875 L 60.707031 33.410156 L 54.007812 33.410156 Z M 54.007812 27.21875 " clip-rule="nonzero"/></clipPath><clipPath id="fe6aae2cbb"><path d="M 47.308594 21.304688 L 54.007812 21.304688 L 54.007812 27.492188 L 47.308594 27.492188 Z M 47.308594 21.304688 " clip-rule="nonzero"/></clipPath><clipPath id="7dbe686a9a"><rect x="0" width="150" y="0" height="40"/></clipPath><mask id="9f6797e393"><g filter="url(#513c9e0a04)"><rect x="-15" width="180" fill="#000000" y="-15" height="179.999997" fill-opacity="0.41"/></g></mask><clipPath id="491cb3b90f"><path d="M 5.636719 26.960938 L 11.519531 26.960938 L 11.519531 32.394531 L 5.636719 32.394531 Z M 5.636719 26.960938 " clip-rule="nonzero"/></clipPath><clipPath id="8cb71d3ce5"><path d="M 0 21.585938 L 5.886719 21.585938 L 5.886719 27.023438 L 0 27.023438 Z M 0 21.585938 " clip-rule="nonzero"/></clipPath><clipPath id="ed55798a14"><path d="M 5.503906 16.148438 L 11.390625 16.148438 L 11.390625 21.585938 L 5.503906 21.585938 Z M 5.503906 16.148438 " clip-rule="nonzero"/></clipPath><clipPath id="2799e8518b"><path d="M 11.921875 21.339844 L 17.808594 21.339844 L 17.808594 26.777344 L 11.921875 26.777344 Z M 11.921875 21.339844 " clip-rule="nonzero"/></clipPath><clipPath id="cb49fc94fd"><path d="M 18.167969 26.894531 L 24.054688 26.894531 L 24.054688 32.332031 L 18.167969 32.332031 Z M 18.167969 26.894531 " clip-rule="nonzero"/></clipPath><clipPath id="de4ac8fee5"><path d="M 17.296875 15.820312 L 23.183594 15.820312 L 23.183594 21.253906 L 17.296875 21.253906 Z M 17.296875 15.820312 " clip-rule="nonzero"/></clipPath><clipPath id="d81280c413"><path d="M 11.324219 10.628906 L 17.210938 10.628906 L 17.210938 16.066406 L 11.324219 16.066406 Z M 11.324219 10.628906 " clip-rule="nonzero"/></clipPath><clipPath id="1198bafa3e"><path d="M 5.355469 10.628906 L 11.242188 10.628906 L 11.242188 16.066406 L 5.355469 16.066406 Z M 5.355469 10.628906 " clip-rule="nonzero"/></clipPath><clipPath id="5795afe6eb"><path d="M 2.828125 5.105469 L 8.710938 5.105469 L 8.710938 10.542969 L 2.828125 10.542969 Z M 2.828125 5.105469 " clip-rule="nonzero"/></clipPath><clipPath id="ba8d342dc0"><path d="M 17.210938 5.105469 L 23.097656 5.105469 L 23.097656 10.542969 L 17.210938 10.542969 Z M 17.210938 5.105469 " clip-rule="nonzero"/></clipPath><clipPath id="34804da8ae"><path d="M 24.394531 21.925781 L 30.28125 21.925781 L 30.28125 27.363281 L 24.394531 27.363281 Z M 24.394531 21.925781 " clip-rule="nonzero"/></clipPath><clipPath id="e41882a974"><path d="M 11.242188 0 L 17.125 0 L 17.125 5.105469 L 11.242188 5.105469 Z M 11.242188 0 " clip-rule="nonzero"/></clipPath><clipPath id="fe5e12ddd8"><path d="M 27.007812 0.300781 L 33.769531 0.300781 L 33.769531 6.550781 L 27.007812 6.550781 Z M 27.007812 0.300781 " clip-rule="nonzero"/></clipPath><clipPath id="bdf5f10b50"><path d="M 67.582031 0.300781 L 74.347656 0.300781 L 74.347656 6.550781 L 67.582031 6.550781 Z M 67.582031 0.300781 " clip-rule="nonzero"/></clipPath><clipPath id="352466097a"><path d="M 67.582031 0 L 74.347656 0 L 74.347656 0.300781 L 67.582031 0.300781 Z M 67.582031 0 " clip-rule="nonzero"/></clipPath><clipPath id="54207da51c"><path d="M 18 0 L 24.761719 0 L 24.761719 0.300781 L 18 0.300781 Z M 18 0 " clip-rule="nonzero"/></clipPath><clipPath id="7a002a690f"><path d="M 40.53125 0 L 47.296875 0 L 47.296875 0.300781 L 40.53125 0.300781 Z M 40.53125 0 " clip-rule="nonzero"/></clipPath><clipPath id="3df412b4e8"><path d="M 54.058594 0 L 60.820312 0 L 60.820312 5.285156 L 54.058594 5.285156 Z M 54.058594 0 " clip-rule="nonzero"/></clipPath><clipPath id="894e7cecde"><path d="M 47.296875 0 L 54.058594 0 L 54.058594 0.300781 L 47.296875 0.300781 Z M 47.296875 0 " clip-rule="nonzero"/></clipPath><clipPath id="252bd0b7f6"><path d="M 33.769531 0 L 40.53125 0 L 40.53125 0.300781 L 33.769531 0.300781 Z M 33.769531 0 " clip-rule="nonzero"/></clipPath><clipPath id="4a16af1382"><path d="M 140.832031 0 L 147.53125 0 L 147.53125 0.644531 L 140.832031 0.644531 Z M 140.832031 0 " clip-rule="nonzero"/></clipPath><clipPath id="aa9592957b"><path d="M 128.550781 5.757812 L 135.25 5.757812 L 135.25 11.945312 L 128.550781 11.945312 Z M 128.550781 5.757812 " clip-rule="nonzero"/></clipPath><clipPath id="20293d3641"><path d="M 135.082031 0 L 141.78125 0 L 141.78125 5.660156 L 135.082031 5.660156 Z M 135.082031 0 " clip-rule="nonzero"/></clipPath><clipPath id="cc72b852e7"><path d="M 143.300781 5.429688 L 150 5.429688 L 150 11.617188 L 143.300781 11.617188 Z M 143.300781 5.429688 " clip-rule="nonzero"/></clipPath><clipPath id="8447460539"><path d="M 143.300781 11.617188 L 150 11.617188 L 150 17.804688 L 143.300781 17.804688 Z M 143.300781 11.617188 " clip-rule="nonzero"/></clipPath><clipPath id="2a0cec44e2"><path d="M 136.679688 11.617188 L 143.378906 11.617188 L 143.378906 17.804688 L 136.679688 17.804688 Z M 136.679688 11.617188 " clip-rule="nonzero"/></clipPath><clipPath id="952981ab69"><path d="M 116.226562 0 L 122.925781 0 L 122.925781 6.03125 L 116.226562 6.03125 Z M 116.226562 0 " clip-rule="nonzero"/></clipPath><clipPath id="593c3ee700"><path d="M 89.292969 0 L 95.992188 0 L 95.992188 6.03125 L 89.292969 6.03125 Z M 89.292969 0 " clip-rule="nonzero"/></clipPath><clipPath id="09ed5f86bc"><path d="M 95.992188 5.757812 L 102.691406 5.757812 L 102.691406 11.945312 L 95.992188 11.945312 Z M 95.992188 5.757812 " clip-rule="nonzero"/></clipPath><clipPath id="7ea17c4ef4"><rect x="0" width="150" y="0" height="33"/></clipPath></defs><rect x="-15" width="180" fill="#ffffff" y="-15" height="179.999997" fill-opacity="1"/><rect x="-15" width="180" fill="#ffffff" y="-15" height="179.999997" fill-opacity="1"/><g mask="url(#7213e2fcb2)"><g transform="matrix(1, 0, 0, 1, 0, 110)"><g clip-path="url(#7dbe686a9a)"><g clip-path="url(#50de87acec)"><path fill="#d82148" d="M 144.363281 6.289062 L 138.480469 6.289062 L 138.480469 0.855469 L 144.363281 0.855469 Z M 144.363281 6.289062 " fill-opacity="1" fill-rule="nonzero"/></g><g clip-path="url(#a1e9c6ea49)"><path fill="#d82148" d="M 150 11.664062 L 144.117188 11.664062 L 144.117188 6.226562 L 150 6.226562 Z M 150 11.664062 " fill-opacity="1" fill-rule="nonzero"/></g><g clip-path="url(#e419800523)"><path fill="#d82148" d="M 144.496094 17.097656 L 138.613281 17.097656 L 138.613281 11.664062 L 144.496094 11.664062 Z M 144.496094 17.097656 " fill-opacity="1" fill-rule="nonzero"/></g><g clip-path="url(#e8587dd94a)"><path fill="#d82148" d="M 138.078125 11.910156 L 132.195312 11.910156 L 132.195312 6.472656 L 138.078125 6.472656 Z M 138.078125 11.910156 " fill-opacity="1" fill-rule="nonzero"/></g><g clip-path="url(#88de8d37bc)"><path fill="#d82148" d="M 131.832031 6.355469 L 125.949219 6.355469 L 125.949219 0.917969 L 131.832031 0.917969 Z M 131.832031 6.355469 " fill-opacity="1" fill-rule="nonzero"/></g><g clip-path="url(#744d808ab2)"><path fill="#d82148" d="M 66.59375 38.792969 L 60.710938 38.792969 L 60.710938 33.355469 L 66.59375 33.355469 Z M 66.59375 38.792969 " fill-opacity="1" fill-rule="nonzero"/></g><g clip-path="url(#c5e41bb9e6)"><path fill="#202085" d="M 132.703125 17.429688 L 126.820312 17.429688 L 126.820312 11.992188 L 132.703125 11.992188 Z M 132.703125 17.429688 " fill-opacity="1" fill-rule="nonzero"/></g><g clip-path="url(#df918f0e89)"><path fill="#d82148" d="M 138.675781 22.621094 L 132.792969 22.621094 L 132.792969 17.183594 L 138.675781 17.183594 Z M 138.675781 22.621094 " fill-opacity="1" fill-rule="nonzero"/></g><g clip-path="url(#26668f6b7a)"><path fill="#d82148" d="M 144.644531 22.621094 L 138.761719 22.621094 L 138.761719 17.183594 L 144.644531 17.183594 Z M 144.644531 22.621094 " fill-opacity="1" fill-rule="nonzero"/></g><g clip-path="url(#5563371371)"><path fill="#d82148" d="M 147.171875 28.144531 L 141.289062 28.144531 L 141.289062 22.707031 L 147.171875 22.707031 Z M 147.171875 28.144531 " fill-opacity="1" fill-rule="nonzero"/></g><g clip-path="url(#c580d7f832)"><path fill="#202085" d="M 132.789062 28.144531 L 126.90625 28.144531 L 126.90625 22.707031 L 132.789062 22.707031 Z M 132.789062 28.144531 " fill-opacity="1" fill-rule="nonzero"/></g><g clip-path="url(#d997125b98)"><path fill="#202085" d="M 125.605469 11.324219 L 119.722656 11.324219 L 119.722656 5.886719 L 125.605469 5.886719 Z M 125.605469 11.324219 " fill-opacity="1" fill-rule="nonzero"/></g><g clip-path="url(#4558ac831c)"><path fill="#202085" d="M 138.757812 33.582031 L 132.875 33.582031 L 132.875 28.144531 L 138.757812 28.144531 Z M 138.757812 33.582031 " fill-opacity="1" fill-rule="nonzero"/></g><g clip-path="url(#068cb16329)"><path fill="#d82148" d="M 144.644531 39.195312 L 138.761719 39.195312 L 138.761719 33.757812 L 144.644531 33.757812 Z M 144.644531 39.195312 " fill-opacity="1" fill-rule="nonzero"/></g><g clip-path="url(#0f66a505f4)"><path fill="#d82148" d="M 122.992188 32.949219 L 116.234375 32.949219 L 116.234375 26.699219 L 122.992188 26.699219 Z M 122.992188 32.949219 " fill-opacity="1" fill-rule="nonzero"/></g><g clip-path="url(#97fc2771f8)"><path fill="#d82148" d="M 82.417969 32.949219 L 75.65625 32.949219 L 75.65625 26.699219 L 82.417969 26.699219 Z M 82.417969 32.949219 " fill-opacity="1" fill-rule="nonzero"/><path fill="#202085" d="M 82.417969 32.949219 L 75.65625 32.949219 L 75.65625 26.699219 L 82.417969 26.699219 Z M 82.417969 32.949219 " fill-opacity="1" fill-rule="nonzero"/></g><g clip-path="url(#28d5797fc0)"><path fill="#d82148" d="M 82.417969 39.195312 L 75.65625 39.195312 L 75.65625 32.949219 L 82.417969 32.949219 Z M 82.417969 39.195312 " fill-opacity="1" fill-rule="nonzero"/></g><g clip-path="url(#d3e8cb7eda)"><path fill="#d82148" d="M 132 39.195312 L 125.238281 39.195312 L 125.238281 32.949219 L 132 32.949219 Z M 132 39.195312 " fill-opacity="1" fill-rule="nonzero"/></g><g clip-path="url(#c47a71b346)"><path fill="#202085" d="M 109.46875 39.195312 L 102.707031 39.195312 L 102.707031 32.949219 L 109.46875 32.949219 Z M 109.46875 39.195312 " fill-opacity="1" fill-rule="nonzero"/></g><g clip-path="url(#f203307d7e)"><path fill="#d82148" d="M 95.941406 34.210938 L 89.179688 34.210938 L 89.179688 27.964844 L 95.941406 27.964844 Z M 95.941406 34.210938 " fill-opacity="1" fill-rule="nonzero"/></g><g clip-path="url(#aabd0806c4)"><path fill="#d82148" d="M 102.703125 39.195312 L 95.945312 39.195312 L 95.945312 32.949219 L 102.703125 32.949219 Z M 102.703125 39.195312 " fill-opacity="1" fill-rule="nonzero"/></g><g clip-path="url(#4b104fa349)"><path fill="#202085" d="M 116.230469 39.195312 L 109.46875 39.195312 L 109.46875 32.949219 L 116.230469 32.949219 Z M 116.230469 39.195312 " fill-opacity="1" fill-rule="nonzero"/></g><g clip-path="url(#b0aef88fd7)"><path fill="#202085" d="M 9.167969 38.792969 L 2.46875 38.792969 L 2.46875 32.605469 L 9.167969 32.605469 Z M 9.167969 38.792969 " fill-opacity="1" fill-rule="nonzero"/></g><g clip-path="url(#3bf41da908)"><path fill="#d82148" d="M 21.449219 27.492188 L 14.75 27.492188 L 14.75 21.304688 L 21.449219 21.304688 Z M 21.449219 27.492188 " fill-opacity="1" fill-rule="nonzero"/></g><g clip-path="url(#df50689853)"><path fill="#202085" d="M 14.917969 33.777344 L 8.21875 33.777344 L 8.21875 27.589844 L 14.917969 27.589844 Z M 14.917969 33.777344 " fill-opacity="1" fill-rule="nonzero"/></g><g clip-path="url(#12bb8a7111)"><path fill="#d82148" d="M 6.699219 27.820312 L 0.00390625 27.820312 L 0.00390625 21.632812 L 6.699219 21.632812 Z M 6.699219 27.820312 " fill-opacity="1" fill-rule="nonzero"/></g><g clip-path="url(#670355c6d3)"><path fill="#d82148" d="M 6.699219 21.632812 L 0.00390625 21.632812 L 0.00390625 15.445312 L 6.699219 15.445312 Z M 6.699219 21.632812 " fill-opacity="1" fill-rule="nonzero"/></g><g clip-path="url(#930b09fdc6)"><path fill="#202085" d="M 13.320312 21.632812 L 6.625 21.632812 L 6.625 15.445312 L 13.320312 15.445312 Z M 13.320312 21.632812 " fill-opacity="1" fill-rule="nonzero"/></g><g clip-path="url(#fec41ed7d9)"><path fill="#202085" d="M 27.53125 40 L 20.832031 40 L 20.832031 33.808594 L 27.53125 33.808594 Z M 27.53125 40 " fill-opacity="1" fill-rule="nonzero"/></g><g clip-path="url(#2c83bdb23e)"><path fill="#202085" d="M 33.773438 33.410156 L 27.078125 33.410156 L 27.078125 27.21875 L 33.773438 27.21875 Z M 33.773438 33.410156 " fill-opacity="1" fill-rule="nonzero"/></g><g clip-path="url(#1241635d0d)"><path fill="#d82148" d="M 33.960938 39.597656 L 27.265625 39.597656 L 27.265625 33.410156 L 33.960938 33.410156 Z M 33.960938 39.597656 " fill-opacity="1" fill-rule="nonzero"/></g><g clip-path="url(#1bd930d1d2)"><path fill="#d82148" d="M 60.707031 33.410156 L 54.011719 33.410156 L 54.011719 27.21875 L 60.707031 27.21875 Z M 60.707031 33.410156 " fill-opacity="1" fill-rule="nonzero"/></g><g clip-path="url(#fe6aae2cbb)"><path fill="#202085" d="M 54.007812 27.492188 L 47.3125 27.492188 L 47.3125 21.304688 L 54.007812 21.304688 Z M 54.007812 27.492188 " fill-opacity="1" fill-rule="nonzero"/></g></g></g></g><g mask="url(#9f6797e393)"><g transform="matrix(1, 0, 0, 1, 0, -0.000000000000007527)"><g clip-path="url(#7ea17c4ef4)"><g clip-path="url(#491cb3b90f)"><path fill="#d82148" d="M 5.636719 26.960938 L 11.519531 26.960938 L 11.519531 32.394531 L 5.636719 32.394531 Z M 5.636719 26.960938 " fill-opacity="1" fill-rule="nonzero"/></g><g clip-path="url(#8cb71d3ce5)"><path fill="#d82148" d="M 0 21.585938 L 5.882812 21.585938 L 5.882812 27.023438 L 0 27.023438 Z M 0 21.585938 " fill-opacity="1" fill-rule="nonzero"/></g><g clip-path="url(#ed55798a14)"><path fill="#d82148" d="M 5.503906 16.148438 L 11.386719 16.148438 L 11.386719 21.585938 L 5.503906 21.585938 Z M 5.503906 16.148438 " fill-opacity="1" fill-rule="nonzero"/></g><g clip-path="url(#2799e8518b)"><path fill="#d82148" d="M 11.921875 21.339844 L 17.804688 21.339844 L 17.804688 26.777344 L 11.921875 26.777344 Z M 11.921875 21.339844 " fill-opacity="1" fill-rule="nonzero"/></g><g clip-path="url(#cb49fc94fd)"><path fill="#d82148" d="M 18.167969 26.894531 L 24.050781 26.894531 L 24.050781 32.332031 L 18.167969 32.332031 Z M 18.167969 26.894531 " fill-opacity="1" fill-rule="nonzero"/></g><g clip-path="url(#de4ac8fee5)"><path fill="#202085" d="M 17.296875 15.820312 L 23.179688 15.820312 L 23.179688 21.253906 L 17.296875 21.253906 Z M 17.296875 15.820312 " fill-opacity="1" fill-rule="nonzero"/></g><g clip-path="url(#d81280c413)"><path fill="#d82148" d="M 11.324219 10.628906 L 17.207031 10.628906 L 17.207031 16.066406 L 11.324219 16.066406 Z M 11.324219 10.628906 " fill-opacity="1" fill-rule="nonzero"/></g><g clip-path="url(#1198bafa3e)"><path fill="#d82148" d="M 5.355469 10.628906 L 11.238281 10.628906 L 11.238281 16.066406 L 5.355469 16.066406 Z M 5.355469 10.628906 " fill-opacity="1" fill-rule="nonzero"/></g><g clip-path="url(#5795afe6eb)"><path fill="#d82148" d="M 2.828125 5.105469 L 8.710938 5.105469 L 8.710938 10.542969 L 2.828125 10.542969 Z M 2.828125 5.105469 " fill-opacity="1" fill-rule="nonzero"/></g><g clip-path="url(#ba8d342dc0)"><path fill="#202085" d="M 17.210938 5.105469 L 23.09375 5.105469 L 23.09375 10.542969 L 17.210938 10.542969 Z M 17.210938 5.105469 " fill-opacity="1" fill-rule="nonzero"/></g><g clip-path="url(#34804da8ae)"><path fill="#202085" d="M 24.394531 21.925781 L 30.277344 21.925781 L 30.277344 27.363281 L 24.394531 27.363281 Z M 24.394531 21.925781 " fill-opacity="1" fill-rule="nonzero"/></g><g clip-path="url(#e41882a974)"><path fill="#202085" d="M 11.242188 -0.332031 L 17.125 -0.332031 L 17.125 5.105469 L 11.242188 5.105469 Z M 11.242188 -0.332031 " fill-opacity="1" fill-rule="nonzero"/></g><g clip-path="url(#fe5e12ddd8)"><path fill="#d82148" d="M 27.007812 0.300781 L 33.765625 0.300781 L 33.765625 6.550781 L 27.007812 6.550781 Z M 27.007812 0.300781 " fill-opacity="1" fill-rule="nonzero"/></g><g clip-path="url(#bdf5f10b50)"><path fill="#d82148" d="M 67.582031 0.300781 L 74.34375 0.300781 L 74.34375 6.550781 L 67.582031 6.550781 Z M 67.582031 0.300781 " fill-opacity="1" fill-rule="nonzero"/><path fill="#202085" d="M 67.582031 0.300781 L 74.34375 0.300781 L 74.34375 6.550781 L 67.582031 6.550781 Z M 67.582031 0.300781 " fill-opacity="1" fill-rule="nonzero"/></g><g clip-path="url(#352466097a)"><path fill="#d82148" d="M 67.582031 -5.945312 L 74.34375 -5.945312 L 74.34375 0.300781 L 67.582031 0.300781 Z M 67.582031 -5.945312 " fill-opacity="1" fill-rule="nonzero"/></g><g clip-path="url(#54207da51c)"><path fill="#d82148" d="M 18 -5.945312 L 24.761719 -5.945312 L 24.761719 0.300781 L 18 0.300781 Z M 18 -5.945312 " fill-opacity="1" fill-rule="nonzero"/></g><g clip-path="url(#7a002a690f)"><path fill="#202085" d="M 40.53125 -5.945312 L 47.292969 -5.945312 L 47.292969 0.300781 L 40.53125 0.300781 Z M 40.53125 -5.945312 " fill-opacity="1" fill-rule="nonzero"/></g><g clip-path="url(#3df412b4e8)"><path fill="#d82148" d="M 54.058594 -0.960938 L 60.820312 -0.960938 L 60.820312 5.285156 L 54.058594 5.285156 Z M 54.058594 -0.960938 " fill-opacity="1" fill-rule="nonzero"/></g><g clip-path="url(#894e7cecde)"><path fill="#d82148" d="M 47.296875 -5.945312 L 54.054688 -5.945312 L 54.054688 0.300781 L 47.296875 0.300781 Z M 47.296875 -5.945312 " fill-opacity="1" fill-rule="nonzero"/></g><g clip-path="url(#252bd0b7f6)"><path fill="#202085" d="M 33.769531 -5.945312 L 40.53125 -5.945312 L 40.53125 0.300781 L 33.769531 0.300781 Z M 33.769531 -5.945312 " fill-opacity="1" fill-rule="nonzero"/></g><g clip-path="url(#4a16af1382)"><path fill="#202085" d="M 140.832031 -5.546875 L 147.53125 -5.546875 L 147.53125 0.644531 L 140.832031 0.644531 Z M 140.832031 -5.546875 " fill-opacity="1" fill-rule="nonzero"/></g><g clip-path="url(#aa9592957b)"><path fill="#d82148" d="M 128.550781 5.757812 L 135.25 5.757812 L 135.25 11.945312 L 128.550781 11.945312 Z M 128.550781 5.757812 " fill-opacity="1" fill-rule="nonzero"/></g><g clip-path="url(#20293d3641)"><path fill="#202085" d="M 135.082031 -0.53125 L 141.78125 -0.53125 L 141.78125 5.660156 L 135.082031 5.660156 Z M 135.082031 -0.53125 " fill-opacity="1" fill-rule="nonzero"/></g><g clip-path="url(#cc72b852e7)"><path fill="#d82148" d="M 143.300781 5.429688 L 149.996094 5.429688 L 149.996094 11.617188 L 143.300781 11.617188 Z M 143.300781 5.429688 " fill-opacity="1" fill-rule="nonzero"/></g><g clip-path="url(#8447460539)"><path fill="#d82148" d="M 143.300781 11.617188 L 149.996094 11.617188 L 149.996094 17.804688 L 143.300781 17.804688 Z M 143.300781 11.617188 " fill-opacity="1" fill-rule="nonzero"/></g><g clip-path="url(#2a0cec44e2)"><path fill="#202085" d="M 136.679688 11.617188 L 143.375 11.617188 L 143.375 17.804688 L 136.679688 17.804688 Z M 136.679688 11.617188 " fill-opacity="1" fill-rule="nonzero"/></g><g clip-path="url(#952981ab69)"><path fill="#202085" d="M 116.226562 -0.160156 L 122.921875 -0.160156 L 122.921875 6.03125 L 116.226562 6.03125 Z M 116.226562 -0.160156 " fill-opacity="1" fill-rule="nonzero"/></g><g clip-path="url(#593c3ee700)"><path fill="#d82148" d="M 89.292969 -0.160156 L 95.988281 -0.160156 L 95.988281 6.03125 L 89.292969 6.03125 Z M 89.292969 -0.160156 " fill-opacity="1" fill-rule="nonzero"/></g><g clip-path="url(#09ed5f86bc)"><path fill="#202085" d="M 95.992188 5.757812 L 102.6875 5.757812 L 102.6875 11.945312 L 95.992188 11.945312 Z M 95.992188 5.757812 " fill-opacity="1" fill-rule="nonzero"/></g></g></g></g><g fill="#000000" fill-opacity="1"><g transform="translate(27.667968, 73.645675)"><g><path d="M 10.609375 0 L 7.890625 0 L 7.890625 -5.8125 C 7.890625 -6.53125 7.757812 -7.066406 7.5 -7.421875 C 7.25 -7.785156 6.847656 -7.96875 6.296875 -7.96875 C 5.535156 -7.96875 4.984375 -7.710938 4.640625 -7.203125 C 4.304688 -6.691406 4.140625 -5.847656 4.140625 -4.671875 L 4.140625 0 L 1.421875 0 L 1.421875 -9.953125 L 3.5 -9.953125 L 3.859375 -8.671875 L 4.015625 -8.671875 C 4.316406 -9.148438 4.734375 -9.507812 5.265625 -9.75 C 5.796875 -10 6.398438 -10.125 7.078125 -10.125 C 8.234375 -10.125 9.109375 -9.8125 9.703125 -9.1875 C 10.304688 -8.5625 10.609375 -7.660156 10.609375 -6.484375 Z M 10.609375 0 "/></g></g></g><g fill="#000000" fill-opacity="1"><g transform="translate(39.644381, 73.645675)"><g><path d="M 3.578125 -4.984375 C 3.578125 -4.003906 3.738281 -3.257812 4.0625 -2.75 C 4.394531 -2.25 4.925781 -2 5.65625 -2 C 6.375 -2 6.890625 -2.25 7.203125 -2.75 C 7.523438 -3.25 7.6875 -3.992188 7.6875 -4.984375 C 7.6875 -5.972656 7.523438 -6.710938 7.203125 -7.203125 C 6.878906 -7.691406 6.351562 -7.9375 5.625 -7.9375 C 4.90625 -7.9375 4.382812 -7.691406 4.0625 -7.203125 C 3.738281 -6.710938 3.578125 -5.972656 3.578125 -4.984375 Z M 10.46875 -4.984375 C 10.46875 -3.367188 10.039062 -2.101562 9.1875 -1.1875 C 8.332031 -0.28125 7.140625 0.171875 5.609375 0.171875 C 4.660156 0.171875 3.820312 -0.0351562 3.09375 -0.453125 C 2.363281 -0.867188 1.800781 -1.46875 1.40625 -2.25 C 1.007812 -3.03125 0.8125 -3.941406 0.8125 -4.984375 C 0.8125 -6.609375 1.234375 -7.867188 2.078125 -8.765625 C 2.929688 -9.671875 4.128906 -10.125 5.671875 -10.125 C 6.617188 -10.125 7.457031 -9.914062 8.1875 -9.5 C 8.914062 -9.09375 9.476562 -8.5 9.875 -7.71875 C 10.269531 -6.945312 10.46875 -6.035156 10.46875 -4.984375 Z M 10.46875 -4.984375 "/></g></g></g><g fill="#000000" fill-opacity="1"><g transform="translate(50.926767, 73.645675)"><g><path d="M 8.359375 -2.953125 C 8.359375 -1.929688 8.003906 -1.15625 7.296875 -0.625 C 6.585938 -0.09375 5.53125 0.171875 4.125 0.171875 C 3.394531 0.171875 2.773438 0.125 2.265625 0.03125 C 1.753906 -0.0625 1.28125 -0.207031 0.84375 -0.40625 L 0.84375 -2.640625 C 1.34375 -2.398438 1.90625 -2.203125 2.53125 -2.046875 C 3.164062 -1.890625 3.722656 -1.8125 4.203125 -1.8125 C 5.191406 -1.8125 5.6875 -2.09375 5.6875 -2.65625 C 5.6875 -2.875 5.617188 -3.046875 5.484375 -3.171875 C 5.359375 -3.304688 5.132812 -3.457031 4.8125 -3.625 C 4.488281 -3.800781 4.0625 -4 3.53125 -4.21875 C 2.769531 -4.539062 2.207031 -4.835938 1.84375 -5.109375 C 1.488281 -5.390625 1.226562 -5.703125 1.0625 -6.046875 C 0.894531 -6.398438 0.8125 -6.835938 0.8125 -7.359375 C 0.8125 -8.242188 1.15625 -8.925781 1.84375 -9.40625 C 2.53125 -9.882812 3.503906 -10.125 4.765625 -10.125 C 5.960938 -10.125 7.125 -9.863281 8.25 -9.34375 L 7.4375 -7.390625 C 6.9375 -7.609375 6.46875 -7.785156 6.03125 -7.921875 C 5.601562 -8.054688 5.164062 -8.125 4.71875 -8.125 C 3.914062 -8.125 3.515625 -7.90625 3.515625 -7.46875 C 3.515625 -7.226562 3.640625 -7.019531 3.890625 -6.84375 C 4.148438 -6.664062 4.71875 -6.398438 5.59375 -6.046875 C 6.375 -5.734375 6.941406 -5.441406 7.296875 -5.171875 C 7.660156 -4.898438 7.925781 -4.582031 8.09375 -4.21875 C 8.269531 -3.863281 8.359375 -3.441406 8.359375 -2.953125 Z M 8.359375 -2.953125 "/></g></g></g><g fill="#000000" fill-opacity="1"><g transform="translate(59.984708, 73.645675)"><g><path d="M 8.359375 -2.953125 C 8.359375 -1.929688 8.003906 -1.15625 7.296875 -0.625 C 6.585938 -0.09375 5.53125 0.171875 4.125 0.171875 C 3.394531 0.171875 2.773438 0.125 2.265625 0.03125 C 1.753906 -0.0625 1.28125 -0.207031 0.84375 -0.40625 L 0.84375 -2.640625 C 1.34375 -2.398438 1.90625 -2.203125 2.53125 -2.046875 C 3.164062 -1.890625 3.722656 -1.8125 4.203125 -1.8125 C 5.191406 -1.8125 5.6875 -2.09375 5.6875 -2.65625 C 5.6875 -2.875 5.617188 -3.046875 5.484375 -3.171875 C 5.359375 -3.304688 5.132812 -3.457031 4.8125 -3.625 C 4.488281 -3.800781 4.0625 -4 3.53125 -4.21875 C 2.769531 -4.539062 2.207031 -4.835938 1.84375 -5.109375 C 1.488281 -5.390625 1.226562 -5.703125 1.0625 -6.046875 C 0.894531 -6.398438 0.8125 -6.835938 0.8125 -7.359375 C 0.8125 -8.242188 1.15625 -8.925781 1.84375 -9.40625 C 2.53125 -9.882812 3.503906 -10.125 4.765625 -10.125 C 5.960938 -10.125 7.125 -9.863281 8.25 -9.34375 L 7.4375 -7.390625 C 6.9375 -7.609375 6.46875 -7.785156 6.03125 -7.921875 C 5.601562 -8.054688 5.164062 -8.125 4.71875 -8.125 C 3.914062 -8.125 3.515625 -7.90625 3.515625 -7.46875 C 3.515625 -7.226562 3.640625 -7.019531 3.890625 -6.84375 C 4.148438 -6.664062 4.71875 -6.398438 5.59375 -6.046875 C 6.375 -5.734375 6.941406 -5.441406 7.296875 -5.171875 C 7.660156 -4.898438 7.925781 -4.582031 8.09375 -4.21875 C 8.269531 -3.863281 8.359375 -3.441406 8.359375 -2.953125 Z M 8.359375 -2.953125 "/></g></g></g><g fill="#000000" fill-opacity="1"><g transform="translate(69.042649, 73.645675)"><g><path d="M 7.734375 0 L 7.21875 -1.359375 L 7.140625 -1.359375 C 6.679688 -0.773438 6.210938 -0.375 5.734375 -0.15625 C 5.253906 0.0625 4.625 0.171875 3.84375 0.171875 C 2.882812 0.171875 2.128906 -0.0976562 1.578125 -0.640625 C 1.035156 -1.179688 0.765625 -1.957031 0.765625 -2.96875 C 0.765625 -4.03125 1.132812 -4.8125 1.875 -5.3125 C 2.613281 -5.8125 3.726562 -6.085938 5.21875 -6.140625 L 6.9375 -6.1875 L 6.9375 -6.625 C 6.9375 -7.632812 6.421875 -8.140625 5.390625 -8.140625 C 4.597656 -8.140625 3.664062 -7.898438 2.59375 -7.421875 L 1.6875 -9.25 C 2.832031 -9.851562 4.101562 -10.15625 5.5 -10.15625 C 6.832031 -10.15625 7.851562 -9.863281 8.5625 -9.28125 C 9.28125 -8.695312 9.640625 -7.8125 9.640625 -6.625 L 9.640625 0 Z M 6.9375 -4.609375 L 5.890625 -4.578125 C 5.097656 -4.546875 4.507812 -4.398438 4.125 -4.140625 C 3.738281 -3.878906 3.546875 -3.484375 3.546875 -2.953125 C 3.546875 -2.191406 3.984375 -1.8125 4.859375 -1.8125 C 5.492188 -1.8125 6 -1.988281 6.375 -2.34375 C 6.75 -2.707031 6.9375 -3.191406 6.9375 -3.796875 Z M 6.9375 -4.609375 "/></g></g></g><g fill="#000000" fill-opacity="1"><g transform="translate(80.04921, 73.645675)"><g/></g></g><g fill="#000000" fill-opacity="1"><g transform="translate(84.782829, 73.645675)"><g><path d="M 6.921875 -7.90625 L 4.578125 -7.90625 L 4.578125 0 L 1.859375 0 L 1.859375 -7.90625 L 0.359375 -7.90625 L 0.359375 -9.21875 L 1.859375 -9.953125 L 1.859375 -10.671875 C 1.859375 -11.804688 2.132812 -12.632812 2.6875 -13.15625 C 3.25 -13.675781 4.144531 -13.9375 5.375 -13.9375 C 6.3125 -13.9375 7.144531 -13.796875 7.875 -13.515625 L 7.171875 -11.53125 C 6.628906 -11.695312 6.128906 -11.78125 5.671875 -11.78125 C 5.285156 -11.78125 5.003906 -11.664062 4.828125 -11.4375 C 4.660156 -11.21875 4.578125 -10.925781 4.578125 -10.5625 L 4.578125 -9.953125 L 6.921875 -9.953125 Z M 6.921875 -7.90625 "/></g></g></g><g fill="#000000" fill-opacity="1"><g transform="translate(91.838775, 73.645675)"><g><path d="M 3.578125 -4.984375 C 3.578125 -4.003906 3.738281 -3.257812 4.0625 -2.75 C 4.394531 -2.25 4.925781 -2 5.65625 -2 C 6.375 -2 6.890625 -2.25 7.203125 -2.75 C 7.523438 -3.25 7.6875 -3.992188 7.6875 -4.984375 C 7.6875 -5.972656 7.523438 -6.710938 7.203125 -7.203125 C 6.878906 -7.691406 6.351562 -7.9375 5.625 -7.9375 C 4.90625 -7.9375 4.382812 -7.691406 4.0625 -7.203125 C 3.738281 -6.710938 3.578125 -5.972656 3.578125 -4.984375 Z M 10.46875 -4.984375 C 10.46875 -3.367188 10.039062 -2.101562 9.1875 -1.1875 C 8.332031 -0.28125 7.140625 0.171875 5.609375 0.171875 C 4.660156 0.171875 3.820312 -0.0351562 3.09375 -0.453125 C 2.363281 -0.867188 1.800781 -1.46875 1.40625 -2.25 C 1.007812 -3.03125 0.8125 -3.941406 0.8125 -4.984375 C 0.8125 -6.609375 1.234375 -7.867188 2.078125 -8.765625 C 2.929688 -9.671875 4.128906 -10.125 5.671875 -10.125 C 6.617188 -10.125 7.457031 -9.914062 8.1875 -9.5 C 8.914062 -9.09375 9.476562 -8.5 9.875 -7.71875 C 10.269531 -6.945312 10.46875 -6.035156 10.46875 -4.984375 Z M 10.46875 -4.984375 "/></g></g></g><g fill="#000000" fill-opacity="1"><g transform="translate(103.121161, 73.645675)"><g><path d="M 5.609375 -1.984375 C 6.085938 -1.984375 6.660156 -2.085938 7.328125 -2.296875 L 7.328125 -0.28125 C 6.648438 0.0195312 5.816406 0.171875 4.828125 0.171875 C 3.742188 0.171875 2.953125 -0.0976562 2.453125 -0.640625 C 1.960938 -1.191406 1.71875 -2.015625 1.71875 -3.109375 L 1.71875 -7.90625 L 0.421875 -7.90625 L 0.421875 -9.0625 L 1.90625 -9.96875 L 2.703125 -12.0625 L 4.4375 -12.0625 L 4.4375 -9.953125 L 7.21875 -9.953125 L 7.21875 -7.90625 L 4.4375 -7.90625 L 4.4375 -3.109375 C 4.4375 -2.722656 4.539062 -2.4375 4.75 -2.25 C 4.96875 -2.070312 5.253906 -1.984375 5.609375 -1.984375 Z M 5.609375 -1.984375 "/></g></g></g><g fill="#000000" fill-opacity="1"><g transform="translate(111.031294, 73.645675)"><g><path d="M 3.578125 -4.984375 C 3.578125 -4.003906 3.738281 -3.257812 4.0625 -2.75 C 4.394531 -2.25 4.925781 -2 5.65625 -2 C 6.375 -2 6.890625 -2.25 7.203125 -2.75 C 7.523438 -3.25 7.6875 -3.992188 7.6875 -4.984375 C 7.6875 -5.972656 7.523438 -6.710938 7.203125 -7.203125 C 6.878906 -7.691406 6.351562 -7.9375 5.625 -7.9375 C 4.90625 -7.9375 4.382812 -7.691406 4.0625 -7.203125 C 3.738281 -6.710938 3.578125 -5.972656 3.578125 -4.984375 Z M 10.46875 -4.984375 C 10.46875 -3.367188 10.039062 -2.101562 9.1875 -1.1875 C 8.332031 -0.28125 7.140625 0.171875 5.609375 0.171875 C 4.660156 0.171875 3.820312 -0.0351562 3.09375 -0.453125 C 2.363281 -0.867188 1.800781 -1.46875 1.40625 -2.25 C 1.007812 -3.03125 0.8125 -3.941406 0.8125 -4.984375 C 0.8125 -6.609375 1.234375 -7.867188 2.078125 -8.765625 C 2.929688 -9.671875 4.128906 -10.125 5.671875 -10.125 C 6.617188 -10.125 7.457031 -9.914062 8.1875 -9.5 C 8.914062 -9.09375 9.476562 -8.5 9.875 -7.71875 C 10.269531 -6.945312 10.46875 -6.035156 10.46875 -4.984375 Z M 10.46875 -4.984375 "/></g></g></g></svg>